<mxfile host="app.diagrams.net" modified="2024-06-07T03:19:54.119Z" agent="Mozilla/5.0 (Windows NT 10.0; Win64; x64) AppleWebKit/537.36 (KHTML, like Gecko) Chrome/125.0.0.0 Safari/537.36 Edg/125.0.0.0" version="24.4.15" etag="iSwayPMer0HsRQIs_N0U" type="github">
  <diagram name="第 1 页" id="Q9IkhSzZI_Hl90FBYRzb">
    <mxGraphModel>
      <root>
        <mxCell id="0" />
        <mxCell id="1" parent="0" />
      </root>
    </mxGraphModel>
  </diagram>
</mxfile>
